<?xml version="1.0" encoding="UTF-8"?>
<svg width="203px" height="38px" viewBox="0 0 203 38" version="1.1" xmlns="http://www.w3.org/2000/svg" xmlns:xlink="http://www.w3.org/1999/xlink">
    <!-- Generator: Sketch 42 (36781) - http://www.bohemiancoding.com/sketch -->
    <title>logo automobile</title>
    <desc>Created with Sketch.</desc>
    <defs>
        <rect id="path-1" x="0" y="0.853658537" width="198.312236" height="32.4390244" rx="5.06329114"></rect>
        <mask id="mask-2" maskContentUnits="userSpaceOnUse" maskUnits="objectBoundingBox" x="-2" y="-2" width="202.312236" height="36.4390244">
            <rect x="-2" y="-1.14634146" width="202.312236" height="36.4390244" fill="white"></rect>
            <use xlink:href="#path-1" fill="black"></use>
        </mask>
    </defs>
    <g id="Page-1" stroke="none" stroke-width="1" fill="none" fill-rule="evenodd">
        <g id="bigger-logo-specification" transform="translate(-28.000000, -28.000000)">
            <g id="logo-automobile" transform="translate(30.000000, 30.000000)">
                <path d="M5.96543561,32.9689102 C4.32496859,32.9689102 2.83388735,32.2893383 1.75264521,31.194941 C0.671403059,30.1005436 0,28.5913207 0,26.9308944 L0,6.89167435 C0,5.23124811 0.671403059,3.7220252 1.75264521,2.62762781 C2.83388735,1.53323042 4.32496859,0.853658537 5.96543561,0.853658537 L15.9076432,0.853658537 L15.9076432,32.9689102 L5.96543561,32.9689102 Z" id="Fill-1" fill="#FF6600"></path>
                <path d="M0,5.9222561 C0,3.12294696 2.26323882,0.853658537 5.07318038,0.853658537 L16.0337553,0.853658537 L16.0337553,33.2926829 L5.07318038,33.2926829 C2.27134022,33.2926829 0,31.0245268 0,28.2240854 L0,5.9222561 Z" id="Rectangle" fill="#FF6600"></path>
                <path d="M16.3886311,0.430806954 L192.900009,0.430806954 C194.654491,0.430806954 196.249799,1.15545407 197.406189,2.32244162 C198.56258,3.48942916 199.280052,5.09875714 199.280052,6.86931759 L199.280052,28.2377167 C199.280052,30.0082771 198.56258,31.6176051 197.406189,32.7845926 C196.249799,33.9515802 194.654491,34.6762273 192.900009,34.6762273 L16.3886311,34.6762273 L16.3886311,0.430806954" id="Fill-2" fill="#FFFFFF"></path>
                <use id="Rectangle-Copy" stroke="#000000" mask="url(#mask-2)" stroke-width="4" xlink:href="#path-1"></use>
                <polygon id="Fill-4" fill="#FF6600" points="170.223592 28.1304281 174.587822 28.1304281 174.587822 22.9260353 170.223592 22.9260353"></polygon>
                <path d="M29.246124,19.1565516 C28.6183353,19.6234665 27.8580992,19.9237545 27.2956432,20.0574157 C25.4449435,20.4577997 24.7173738,21.3580643 24.7173738,22.9596004 C24.7173738,24.3273793 25.2133091,25.4614011 26.4362201,25.4614011 C27.6597251,25.4614011 29.246124,24.6612325 29.246124,22.6928775 L29.246124,19.1565516 Z M20.9155994,15.6867566 L20.9155994,15.2528075 C20.9155994,11.1165049 23.7255033,9.71516087 27.1631959,9.71516087 C32.5852234,9.71516087 33.6097603,11.9838038 33.6097603,15.2198417 L33.6097603,24.6612325 C33.6097603,26.3292994 33.7095413,27.0965023 34.1716223,28.1304281 L29.8085799,28.1304281 C29.5110187,27.5634172 29.3785713,26.8627452 29.246124,26.2627686 L29.1801972,26.2627686 C28.1224,28.1304281 26.8329683,28.597343 24.6508532,28.597343 C21.4774614,28.597343 20.3537375,25.8623845 20.3537375,23.4600804 C20.3537375,20.0903814 21.7090959,18.7226025 24.8492273,17.8553036 L27.4280906,17.1546316 C28.783449,16.7878127 29.246124,16.2543669 29.246124,15.0532148 C29.246124,13.6854359 28.6515956,12.8511028 27.1305295,12.8511028 C25.7419107,12.8511028 25.014935,13.7855319 25.014935,15.1862766 L25.014935,15.6867566 L20.9155994,15.6867566 L20.9155994,15.6867566 Z" id="Fill-5" fill="#000000"></path>
                <path d="M46.2035463,26.0290114 L46.1370256,26.0290114 C45.1784154,27.7971744 43.5254959,28.597343 41.6082755,28.597343 C38.7651113,28.597343 37.0789314,27.0299715 37.0789314,23.4936456 L37.0789314,10.1820758 L41.6409419,10.1820758 L41.6409419,22.5592164 C41.6409419,24.3609445 42.2360642,25.0616165 43.5920165,25.0616165 C45.145749,25.0616165 46.0051722,24.0936222 46.0051722,22.0923015 L46.0051722,10.1820758 L50.5671826,10.1820758 L50.5671826,28.1304281 L46.2035463,28.1304281 L46.2035463,26.0290114" id="Fill-6" fill="#000000"></path>
                <path d="M54.8298502,5.04481318 L59.3918606,5.04481318 L59.3918606,10.1820758 L62.0366507,10.1820758 L62.0366507,13.3180176 L59.3918606,13.3180176 L59.3918606,23.0261313 C59.3918606,24.4274754 59.6894218,24.9950856 61.0115199,24.9950856 C61.3756017,24.9950856 61.7390895,24.9615205 62.0366507,24.9279554 L62.0366507,28.1304281 C61.0447802,28.2311235 60.1194303,28.3306201 59.0616331,28.3306201 C55.4908992,28.3306201 54.8298502,27.2301635 54.8298502,23.5937416 L54.8298502,13.3180176 L52.5158816,13.3180176 L52.5158816,10.1820758 L54.8298502,10.1820758 L54.8298502,5.04481318" id="Fill-7" fill="#000000"></path>
                <path d="M70.2668003,25.4614011 C72.118094,25.4614011 72.7132163,23.6267073 72.7132163,19.1565516 C72.7132163,14.6857966 72.118094,12.8511028 70.2668003,12.8511028 C68.0187584,12.8511028 67.8203843,15.4865646 67.8203843,19.1565516 C67.8203843,22.8259393 68.0187584,25.4614011 70.2668003,25.4614011 Z M70.2668003,9.71516087 C75.7547546,9.61506487 77.2752267,12.9176336 77.2752267,19.1565516 C77.2752267,25.2947743 75.4904537,28.597343 70.2668003,28.597343 C64.778846,28.697439 63.2583739,25.3948703 63.2583739,19.1565516 C63.2583739,13.0177296 65.0437408,9.71516087 70.2668003,9.71516087 L70.2668003,9.71516087 Z" id="Fill-8" fill="#000000"></path>
                <path d="M79.9514954,10.1820758 L84.3151317,10.1820758 L84.3151317,12.017369 L84.3810584,12.017369 C85.5380427,10.3822678 86.9599218,9.71516087 88.8771422,9.71516087 C90.9594763,9.71516087 92.4805425,10.749686 92.9764777,12.5843799 L93.0424044,12.5843799 C93.7367138,10.6825558 95.3896334,9.71516087 97.5384882,9.71516087 C100.546766,9.71516087 101.968051,11.616985 101.968051,15.08678 L101.968051,28.1304281 L97.4060408,28.1304281 L97.4060408,15.5866606 C97.4060408,14.0852206 96.9101055,13.2514868 95.6212678,13.2514868 C94.1667223,13.2514868 93.2407785,14.2524468 93.2407785,16.3208978 L93.2407785,28.1304281 L88.6787681,28.1304281 L88.6787681,15.5866606 C88.6787681,14.0852206 88.1828328,13.2514868 86.8934011,13.2514868 C85.4388557,13.2514868 84.5135058,14.2524468 84.5135058,16.3208978 L84.5135058,28.1304281 L79.9514954,28.1304281 L79.9514954,10.1820758" id="Fill-9" fill="#000000"></path>
                <path d="M111.651558,25.4614011 C113.503446,25.4614011 114.097974,23.6267073 114.097974,19.1565516 C114.097974,14.6857966 113.503446,12.8511028 111.651558,12.8511028 C109.404111,12.8511028 109.205736,15.4865646 109.205736,19.1565516 C109.205736,22.8259393 109.404111,25.4614011 111.651558,25.4614011 Z M111.651558,9.71516087 C117.139513,9.61506487 118.660579,12.9176336 118.660579,19.1565516 C118.660579,25.2947743 116.874618,28.597343 111.651558,28.597343 C106.164198,28.697439 104.643726,25.3948703 104.643726,19.1565516 C104.643726,13.0177296 106.428499,9.71516087 111.651558,9.71516087 L111.651558,9.71516087 Z" id="Fill-10" fill="#000000"></path>
                <path d="M128.312014,25.0616165 C130.295161,25.0616165 130.691909,23.0596964 130.691909,19.1565516 C130.691909,15.2528075 130.295161,13.2514868 128.312014,13.2514868 C126.295012,13.2514868 125.898264,15.2528075 125.898264,19.1565516 C125.898264,23.0596964 126.295012,25.0616165 128.312014,25.0616165 Z M121.336254,4.31057602 L125.898264,4.31057602 L125.898264,11.8501427 L125.964785,11.8501427 C126.922801,10.4158329 128.080379,9.71516087 129.799225,9.71516087 C133.535073,9.71516087 135.253919,12.4842839 135.253919,19.1565516 C135.253919,25.8288194 133.535073,28.597343 129.799225,28.597343 C128.014452,28.597343 126.757687,27.8972704 125.766411,26.2292034 L125.700484,26.2292034 L125.700484,28.1304281 L121.336254,28.1304281 L121.336254,4.31057602 L121.336254,4.31057602 Z" id="Fill-11" fill="#000000"></path>
                <path d="M138.260416,28.1304281 L142.822426,28.1304281 L142.822426,10.1820758 L138.260416,10.1820758 L138.260416,28.1304281 Z M138.260416,7.98056305 L142.822426,7.98056305 L142.822426,4.04385314 L138.260416,4.04385314 L138.260416,7.98056305 Z" id="Fill-12" fill="#000000"></path>
                <polygon id="Fill-13" fill="#000000" points="146.424638 28.1304281 150.986649 28.1304281 150.986649 4.31057602 146.424638 4.31057602"></polygon>
                <path d="M162.985906,17.1216658 C162.886719,14.3855086 162.555898,12.8511028 160.671938,12.8511028 C158.853905,12.8511028 158.324709,14.7529268 158.324709,16.4209938 L158.324709,17.1216658 L162.985906,17.1216658 Z M158.324709,19.8572237 L158.324709,21.2915335 C158.324709,23.3935496 158.887165,25.4614011 160.572751,25.4614011 C162.093817,25.4614011 162.721606,24.2938142 162.985906,22.0923015 L167.085242,22.0923015 C166.920128,26.2627686 164.936981,28.597343 160.638678,28.597343 C154.026999,28.597343 153.762698,23.4600804 153.762698,18.9899248 C153.762698,14.1853166 154.688048,9.71516087 160.837052,9.71516087 C166.159298,9.71516087 167.350137,13.3180176 167.350137,18.8226985 L167.350137,19.8572237 L158.324709,19.8572237 L158.324709,19.8572237 Z" id="Fill-14" fill="#000000"></path>
                <path d="M178.289221,28.1304281 L182.851232,28.1304281 L182.851232,10.1820758 L178.289221,10.1820758 L178.289221,28.1304281 Z M178.289221,7.98056305 L182.851232,7.98056305 L182.851232,4.04385314 L178.289221,4.04385314 L178.289221,7.98056305 Z" id="Fill-15" fill="#000000"></path>
                <path d="M187.280201,5.04481318 L191.842211,5.04481318 L191.842211,10.1820758 L194.487001,10.1820758 L194.487001,13.3180176 L191.842211,13.3180176 L191.842211,23.0261313 C191.842211,24.4274754 192.139773,24.9950856 193.461871,24.9950856 C193.825359,24.9950856 194.188846,24.9615205 194.487001,24.9279554 L194.487001,28.1304281 C193.494537,28.2311235 192.569781,28.3306201 191.51139,28.3306201 C187.94125,28.3306201 187.280201,27.2301635 187.280201,23.5937416 L187.280201,13.3180176 L184.965638,13.3180176 L184.965638,10.1820758 L187.280201,10.1820758 L187.280201,5.04481318" id="Fill-16" fill="#000000"></path>
            </g>
        </g>
    </g>
</svg>
