<?xml version="1.0" standalone="no"?>
<!DOCTYPE svg PUBLIC "-//W3C//DTD SVG 20010904//EN"
 "http://www.w3.org/TR/2001/REC-SVG-20010904/DTD/svg10.dtd">
<svg version="1.0" xmlns="http://www.w3.org/2000/svg"
 width="1500.000000pt" height="758.000000pt" viewBox="0 0 1500.000000 758.000000"
 preserveAspectRatio="xMidYMid meet">

<g transform="translate(0.000000,758.000000) scale(0.100000,-0.100000)"
fill="#000000" stroke="none">
<path d="M9600 4854 c-108 -23 -223 -86 -304 -168 -149 -149 -216 -355 -203
-620 7 -146 26 -224 80 -336 76 -156 210 -260 392 -306 102 -25 295 -23 399 5
106 28 212 78 242 114 19 23 24 40 24 87 0 76 -15 90 -67 61 -153 -86 -260
-120 -374 -121 -316 -1 -493 224 -476 605 11 261 118 439 303 507 46 17 82 22
164 22 128 1 208 -21 324 -90 98 -58 110 -54 114 36 2 44 -2 69 -13 86 -22 34
-141 91 -238 114 -98 24 -268 26 -367 4z"/>
<path d="M3748 4849 c-17 -9 -18 -54 -18 -708 0 -606 2 -700 15 -711 20 -16
160 -16 180 0 13 11 15 105 15 711 0 680 -1 699 -19 709 -25 13 -151 13 -173
-1z"/>
<path d="M4674 4851 c-56 -24 -54 2 -54 -732 0 -586 2 -678 15 -689 20 -16
160 -16 180 0 13 11 15 89 13 611 -2 330 -2 599 -1 599 1 0 21 -35 44 -77 119
-218 616 -1052 643 -1081 48 -52 76 -62 166 -62 73 0 83 3 105 25 l25 24 0
686 0 685 -26 10 c-43 17 -139 12 -164 -8 l-21 -17 3 -567 c2 -312 0 -564 -4
-560 -3 4 -53 90 -111 192 -125 223 -501 864 -529 903 -32 44 -73 60 -173 64
-49 1 -100 -1 -111 -6z"/>
<path d="M6533 4845 c-24 -10 -33 -22 -38 -47 -3 -18 -5 -326 -3 -685 3 -610
4 -653 21 -670 16 -16 42 -18 230 -21 325 -5 460 15 616 90 155 74 267 215
318 398 14 51 18 103 18 245 0 172 -2 184 -28 260 -59 166 -162 285 -309 355
-103 49 -173 67 -308 80 -160 15 -478 12 -517 -5z m597 -170 c178 -55 288
-170 335 -350 19 -75 20 -276 1 -366 -29 -137 -109 -251 -213 -307 -106 -55
-151 -64 -360 -69 l-193 -5 0 562 0 563 188 -6 c135 -3 202 -10 242 -22z"/>
<path d="M8308 4849 c-17 -9 -18 -54 -18 -714 l0 -704 22 -7 c36 -11 157 -7
173 6 13 11 15 109 15 711 0 680 -1 699 -19 709 -25 13 -151 13 -173 -1z"/>
<path d="M11167 4847 c-23 -16 -558 -1365 -555 -1397 3 -20 10 -26 43 -32 43
-7 124 -1 145 12 7 4 42 88 79 186 l67 179 330 0 329 0 67 -174 c37 -95 72
-179 78 -186 13 -16 113 -26 165 -17 26 5 41 13 43 25 5 24 -535 1389 -556
1405 -22 17 -212 17 -235 -1z m252 -557 l128 -335 -133 -3 c-73 -1 -196 -1
-273 0 l-140 3 128 335 c70 184 130 344 135 355 l8 20 9 -20 c5 -11 67 -171
138 -355z"/>
<path d="M12171 4851 c-18 -12 -26 -102 -12 -130 11 -21 17 -21 241 -21 l230
0 0 -629 c0 -539 2 -630 15 -641 16 -13 137 -18 172 -6 l23 7 2 632 3 632 234
5 235 5 8 30 c12 42 0 103 -22 115 -24 13 -1109 13 -1129 1z"/>
<path d="M14072 4843 c-12 -11 -128 -292 -292 -707 -308 -781 -293 -719 -173
-719 110 -1 102 -9 179 198 l69 185 329 -2 329 -3 67 -172 c36 -94 72 -178 78
-186 27 -32 204 -29 210 4 5 27 -535 1382 -559 1402 -17 14 -41 17 -119 17
-79 0 -102 -3 -118 -17z m246 -531 c73 -191 132 -350 132 -354 0 -5 -122 -8
-271 -8 -166 0 -269 4 -267 9 40 116 264 701 268 701 3 0 65 -156 138 -348z"/>
<path d="M5566 3050 c-63 -20 -96 -76 -96 -165 0 -66 19 -118 52 -139 70 -46
179 -21 212 49 38 79 18 203 -37 239 -29 20 -95 27 -131 16z m95 -40 c29 -16
49 -64 49 -120 0 -88 -34 -130 -105 -130 -49 0 -81 34 -90 95 -18 114 63 199
146 155z"/>
<path d="M7817 3050 c-40 -12 -58 -29 -78 -75 -36 -78 -16 -195 39 -232 18
-11 46 -17 82 -17 98 0 143 51 144 164 1 72 -15 113 -54 141 -30 22 -95 31
-133 19z m115 -60 c29 -30 30 -33 26 -106 -3 -69 -6 -79 -31 -100 -39 -34
-100 -33 -131 1 -29 31 -41 100 -26 154 22 81 105 107 162 51z"/>
<path d="M8666 3050 c-63 -20 -96 -76 -96 -165 0 -66 19 -118 52 -139 70 -46
179 -21 213 50 38 79 18 202 -38 238 -29 20 -95 27 -131 16z m110 -54 c24 -20
28 -33 32 -88 6 -102 -26 -148 -103 -148 -49 0 -81 34 -90 95 -19 125 80 212
161 141z"/>
<path d="M10122 3050 c-70 -16 -112 -80 -112 -168 0 -77 27 -119 93 -146 44
-19 52 -19 105 -5 l57 14 3 78 3 77 -66 0 c-51 0 -65 -3 -65 -15 0 -11 12 -15
46 -15 l45 0 -3 -47 c-3 -42 -6 -49 -30 -57 -39 -14 -97 3 -120 35 -25 34 -33
97 -18 144 21 64 108 95 170 60 32 -18 40 -18 40 0 0 34 -86 60 -148 45z"/>
<path d="M10950 3053 c-90 -18 -137 -145 -94 -252 22 -54 56 -75 125 -75 100
-1 143 50 144 169 0 76 -15 112 -58 139 -26 17 -82 26 -117 19z m101 -62 c27
-27 29 -35 29 -101 0 -66 -2 -74 -29 -101 -23 -22 -39 -29 -68 -29 -74 1 -100
47 -94 168 2 48 48 92 96 92 27 0 44 -8 66 -29z"/>
<path d="M3737 3043 c-4 -3 -7 -75 -7 -160 0 -146 1 -153 20 -153 18 0 20 7
20 60 l0 60 36 0 c107 0 164 102 95 171 -26 26 -36 29 -94 29 -35 0 -67 -3
-70 -7z m129 -49 c20 -19 24 -31 19 -52 -10 -42 -24 -52 -71 -52 l-44 0 0 58
c0 32 3 62 7 65 15 16 65 6 89 -19z"/>
<path d="M4155 3041 c-3 -6 -25 -65 -49 -133 -24 -68 -49 -135 -55 -150 -10
-26 -9 -28 13 -28 18 0 25 8 35 40 l12 41 71 -3 71 -3 12 -35 c8 -23 19 -36
33 -38 12 -2 22 -1 22 1 0 4 -53 154 -102 290 -7 19 -17 27 -33 27 -13 0 -26
-4 -30 -9z m53 -109 c12 -38 22 -71 22 -75 0 -4 -22 -7 -50 -7 -27 0 -50 3
-50 7 0 16 44 143 50 143 3 0 16 -31 28 -68z"/>
<path d="M4497 3043 c-4 -3 -7 -75 -7 -160 0 -146 1 -153 20 -153 18 0 20 7
20 70 0 68 1 70 26 70 43 0 62 -18 85 -80 18 -50 26 -60 45 -60 l24 0 -21 53
c-11 28 -28 63 -38 77 -18 25 -18 26 5 43 46 35 39 112 -12 136 -27 12 -136
15 -147 4z m121 -39 c24 -17 30 -62 10 -82 -7 -7 -31 -12 -55 -12 l-43 0 0 48
c0 27 3 52 7 55 12 12 58 7 81 -9z"/>
<path d="M4850 3035 c0 -11 11 -15 45 -15 l45 0 0 -145 0 -145 25 0 25 0 0
144 0 145 48 3 c91 6 43 23 -73 26 -98 2 -115 0 -115 -13z"/>
<path d="M5947 3043 c-4 -3 -7 -76 -7 -160 0 -154 0 -154 23 -151 20 3 22 9
25 70 l3 67 55 3 c71 4 70 22 -1 26 l-55 3 0 59 0 60 60 0 c47 0 60 3 60 15 0
12 -15 15 -78 15 -43 0 -82 -3 -85 -7z"/>
<path d="M6605 3038 c-83 -231 -105 -294 -105 -300 0 -4 9 -8 20 -8 14 0 22
11 31 40 l12 40 69 0 68 0 16 -40 c11 -27 22 -40 35 -40 10 0 19 4 19 9 0 4
-24 75 -54 157 -49 138 -55 149 -80 152 -15 2 -28 -2 -31 -10z m59 -116 l25
-72 -55 0 c-30 0 -54 2 -54 3 0 4 34 104 45 136 8 20 12 12 39 -67z"/>
<path d="M6940 2922 c0 -143 7 -164 66 -188 44 -18 68 -18 111 3 51 24 63 61
63 198 0 107 -1 115 -19 115 -18 0 -20 -10 -23 -124 -2 -105 -6 -127 -22 -145
-29 -32 -88 -29 -115 5 -19 24 -21 40 -21 145 0 112 -1 119 -20 119 -19 0 -20
-7 -20 -128z"/>
<path d="M7350 3035 c0 -11 11 -15 45 -15 l44 0 3 -142 c3 -140 4 -143 26
-146 22 -3 22 -3 22 142 l0 145 48 3 c91 6 43 23 -73 26 -98 2 -115 0 -115
-13z"/>
<path d="M8200 2890 c0 -153 1 -160 20 -160 18 0 20 7 20 70 l0 70 30 0 c34 0
61 -34 82 -102 9 -31 16 -38 36 -38 15 0 22 5 19 13 -3 6 -13 32 -22 57 -10
25 -26 53 -35 63 -16 18 -16 20 11 47 28 28 36 60 23 95 -11 27 -60 45 -124
45 l-60 0 0 -160z m113 121 c33 -13 43 -46 23 -76 -13 -20 -25 -25 -56 -25
l-40 0 0 55 c0 52 2 55 24 55 14 0 36 -4 49 -9z"/>
<path d="M9042 2893 l3 -158 83 -3 c68 -2 82 0 82 13 0 12 -13 15 -60 15 l-59
0 -3 143 c-3 139 -3 142 -26 145 l-23 3 3 -158z"/>
<path d="M9438 3003 c-8 -27 -34 -99 -56 -160 -41 -112 -41 -113 -18 -113 18
0 25 9 35 40 l12 40 68 0 68 0 16 -40 c11 -30 21 -40 37 -40 14 0 20 5 18 13
-3 6 -29 78 -58 160 -50 140 -54 147 -79 147 -24 0 -29 -7 -43 -47z m70 -71
c12 -38 22 -71 22 -75 0 -4 -22 -7 -50 -7 -27 0 -50 3 -50 7 0 16 44 143 50
143 3 0 16 -31 28 -68z"/>
<path d="M10470 2891 c0 -154 1 -161 20 -161 18 0 20 7 20 70 l0 70 28 0 c36
0 55 -21 80 -85 14 -35 26 -51 41 -53 11 -2 21 -1 21 2 0 15 -44 113 -57 128
-15 16 -14 20 10 42 33 30 36 83 8 117 -16 20 -30 24 -95 27 l-76 4 0 -161z
m130 109 c41 -41 12 -90 -52 -90 l-38 0 0 55 0 55 35 0 c22 0 43 -8 55 -20z"/>
<path d="M11320 2920 c0 -128 0 -130 28 -162 25 -27 36 -32 79 -32 27 -1 61 5
74 12 46 24 53 49 57 185 4 122 3 127 -16 127 -19 0 -21 -7 -24 -126 -3 -118
-4 -127 -27 -145 -32 -26 -82 -25 -109 4 -20 21 -22 34 -22 145 0 115 -1 122
-20 122 -19 0 -20 -7 -20 -130z"/>
<path d="M11767 3043 c-4 -3 -7 -75 -7 -160 0 -146 1 -153 20 -153 18 0 20 7
20 59 l0 58 52 5 c42 4 57 11 80 37 39 43 38 92 -1 132 -26 26 -36 29 -94 29
-35 0 -67 -3 -70 -7z m129 -49 c20 -19 24 -31 19 -52 -10 -42 -24 -52 -71 -52
l-44 0 0 58 c0 32 3 62 7 65 15 16 65 6 89 -19z"/>
</g>
</svg>
